<svg width="24" height="24" viewBox="0 0 24 24" fill="none" xmlns="http://www.w3.org/2000/svg">
<path fill-rule="evenodd" clip-rule="evenodd" d="M9.7649 2.99795C10.0463 2.6837 10.3908 2.43231 10.7759 2.26021C11.161 2.0881 11.5781 1.99915 11.9999 1.99915C12.4217 1.99915 12.8388 2.0881 13.2239 2.26021C13.609 2.43231 13.9535 2.6837 14.2349 2.99795L14.9349 3.77995C15.0349 3.89186 15.1589 3.97981 15.2975 4.03728C15.4362 4.09476 15.586 4.12028 15.7359 4.11195L16.7859 4.05395C17.2069 4.03083 17.6281 4.09673 18.022 4.24735C18.4159 4.39798 18.7736 4.62994 19.0717 4.92812C19.3699 5.22629 19.6019 5.58398 19.7525 5.97784C19.9031 6.37171 19.969 6.7929 19.9459 7.21395L19.8879 8.26395C19.8797 8.41366 19.9053 8.56328 19.9628 8.70176C20.0203 8.84024 20.1081 8.96402 20.2199 9.06395L21.0029 9.76395C21.3173 10.0453 21.5688 10.3899 21.7411 10.7751C21.9133 11.1603 22.0023 11.5775 22.0023 11.9995C22.0023 12.4214 21.9133 12.8386 21.7411 13.2238C21.5688 13.609 21.3173 13.9536 21.0029 14.235L20.2199 14.935C20.108 15.035 20.02 15.1589 19.9626 15.2976C19.9051 15.4363 19.8796 15.5861 19.8879 15.736L19.9459 16.786C19.969 17.207 19.9031 17.6282 19.7525 18.0221C19.6019 18.4159 19.3699 18.7736 19.0717 19.0718C18.7736 19.37 18.4159 19.6019 18.022 19.7526C17.6281 19.9032 17.2069 19.9691 16.7859 19.946L15.7359 19.888C15.5862 19.8798 15.4366 19.9054 15.2981 19.9628C15.1596 20.0203 15.0358 20.1082 14.9359 20.22L14.2359 21.003C13.9545 21.3174 13.61 21.5689 13.2248 21.7411C12.8395 21.9133 12.4223 22.0023 12.0004 22.0023C11.5785 22.0023 11.1613 21.9133 10.776 21.7411C10.3908 21.5689 10.0463 21.3174 9.7649 21.003L9.0649 20.22C8.96486 20.108 8.84092 20.0201 8.70226 19.9626C8.56359 19.9051 8.41377 19.8796 8.2639 19.888L7.2139 19.946C6.79285 19.9691 6.37166 19.9032 5.97779 19.7526C5.58393 19.6019 5.22624 19.37 4.92807 19.0718C4.62989 18.7736 4.39792 18.4159 4.2473 18.0221C4.09668 17.6282 4.03078 17.207 4.0539 16.786L4.1119 15.736C4.12007 15.5862 4.09448 15.4366 4.03701 15.2981C3.97954 15.1597 3.89167 15.0359 3.7799 14.936L2.9979 14.236C2.68348 13.9546 2.43195 13.61 2.25975 13.2248C2.08754 12.8396 1.99854 12.4224 1.99854 12.0005C1.99854 11.5785 2.08754 11.1613 2.25975 10.7761C2.43195 10.3909 2.68348 10.0463 2.9979 9.76495L3.7799 9.06495C3.89181 8.96492 3.97976 8.84097 4.03723 8.70231C4.0947 8.56365 4.12022 8.41382 4.1119 8.26395L4.0539 7.21395C4.03078 6.7929 4.09668 6.37171 4.2473 5.97784C4.39792 5.58398 4.62989 5.22629 4.92807 4.92812C5.22624 4.62994 5.58393 4.39798 5.97779 4.24735C6.37166 4.09673 6.79285 4.03083 7.2139 4.05395L8.2639 4.11195C8.41361 4.12012 8.56323 4.09453 8.70171 4.03706C8.84019 3.97959 8.96397 3.89172 9.0639 3.77995L9.7649 2.99795ZM15.7069 8.29295C15.8944 8.48048 15.9997 8.73479 15.9997 8.99995C15.9997 9.26512 15.8944 9.51942 15.7069 9.70695L9.7069 15.707C9.5183 15.8891 9.2657 15.9899 9.0035 15.9876C8.7413 15.9853 8.49049 15.8802 8.30508 15.6948C8.11967 15.5094 8.01451 15.2585 8.01223 14.9964C8.00995 14.7342 8.11074 14.4816 8.2929 14.293L14.2929 8.29295C14.4804 8.10548 14.7347 8.00017 14.9999 8.00017C15.2651 8.00017 15.5194 8.10548 15.7069 8.29295ZM9.4999 7.99995C9.10208 7.99995 8.72054 8.15799 8.43924 8.43929C8.15794 8.7206 7.9999 9.10213 7.9999 9.49995V9.50995C7.9999 9.90778 8.15794 10.2893 8.43924 10.5706C8.72054 10.8519 9.10208 11.01 9.4999 11.01H9.5099C9.90773 11.01 10.2893 10.8519 10.5706 10.5706C10.8519 10.2893 11.0099 9.90778 11.0099 9.50995V9.49995C11.0099 9.10213 10.8519 8.7206 10.5706 8.43929C10.2893 8.15799 9.90773 7.99995 9.5099 7.99995H9.4999ZM14.4999 13C14.1021 13 13.7205 13.158 13.4392 13.4393C13.1579 13.7206 12.9999 14.1021 12.9999 14.5V14.51C12.9999 14.9078 13.1579 15.2893 13.4392 15.5706C13.7205 15.8519 14.1021 16.01 14.4999 16.01H14.5099C14.9077 16.01 15.2893 15.8519 15.5706 15.5706C15.8519 15.2893 16.0099 14.9078 16.0099 14.51V14.5C16.0099 14.1021 15.8519 13.7206 15.5706 13.4393C15.2893 13.158 14.9077 13 14.5099 13H14.4999Z" fill="#C0C0C0"/>
</svg>
